<svg xmlns="http://www.w3.org/2000/svg" width="19.2" height="16" viewBox="0 0 19.2 16">
    <g data-name="Group 15661">
        <path data-name="Path 17419" d="M16.6 8H3.8a.8.8 0 0 0 0 1.6h12.8a.8.8 0 1 0 0-1.6z" transform="translate(-.6 -3.2)" style="fill:#161616"/>
        <path data-name="Path 17420" d="M18.4 2H.8a.8.8 0 0 0 0 1.6h17.6a.8.8 0 1 0 0-1.6z" transform="translate(0 -2)" style="fill:#161616"/>
        <path data-name="Path 17421" d="M14.8 14h-8a.8.8 0 1 0 0 1.6h8a.8.8 0 0 0 0-1.6z" transform="translate(-1.2 -4.4)" style="fill:#161616"/>
        <path data-name="Path 17422" d="M13 20H9.8a.8.8 0 1 0 0 1.6H13a.8.8 0 1 0 0-1.6z" transform="translate(-1.8 -5.6)" style="fill:#161616"/>
    </g>
</svg>
